<?xml version="1.0" ?><svg xmlns="http://www.w3.org/2000/svg" width="24" height="24" viewBox="0 0 24 24" fill="none"><path d="M3.70715 2.29289L8 6.58574V5L10 5V10H5V8H6.58583L2.29294 3.70711L3.70715 2.29289Z" fill="black"/><path d="M21.7072 3.70711L17.4143 8H19V10H14V5L16 5L16 6.58583L20.2929 2.29289L21.7072 3.70711Z" fill="black"/><path d="M5 14H10L10 19L8 19L8 17.4142L3.70706 21.7071L2.29285 20.2929L6.58572 16H5L5 14Z" fill="black"/><path d="M17.5709 16L21.6758 19.7628L20.3243 21.2371L16 17.2731V19H14V14H19V16H17.5709Z" fill="black"/></svg>